<svg xmlns="http://www.w3.org/2000/svg" xmlns:xlink="http://www.w3.org/1999/xlink" version="1.1" id="Layer_1" x="0px" y="0px" viewBox="0 0 53.8 47.4" style="enable-background:new 0 0 53.8 47.4;" xml:space="preserve">
<style type="text/css">
	.st0{fill:#F9A46F;stroke:#333333;stroke-width:5;stroke-miterlimit:10;}
	.st1{fill:none;stroke:#333333;stroke-width:3;stroke-miterlimit:10;}
</style>
<g id="Layer_4">
	<path class="st0" d="M50.5,15.6c-0.2-1.2-1-7.8-7.1-10.5c-2.7-1.2-6.8-1.8-10.6,0c-4.7,2.2-5.6,5-5.7,5.6l-0.1,1.6v-0.1   c0.1-1.6-1.1-4.9-5.8-7.1c-2.5-1.2-6.5-1.8-10.6,0c-6.1,2.7-6.9,9.3-7.1,10.5c-1,7.8,5.1,14.1,9.4,18.5c3.2,3.3,8.9,6.3,12.7,8.2   l1.3,0.7c0.4-0.2-0.5,0.3,0,0c0.5,0.3-0.4-0.2,0,0l1.3-0.7c3.8-1.9,9.8-4.9,13-8.2C45.5,29.7,51.6,23.4,50.5,15.6z" fill="#333333"/>
	<line class="st1" x1="14.5" y1="21.6" x2="7" y2="25" fill="#333333"/>
	<line class="st1" x1="18.4" y1="27.4" x2="12" y2="31.3" fill="#333333"/>
	<line class="st1" x1="22.8" y1="32.7" x2="17.4" y2="37.3" fill="#333333"/>
	<line class="st1" x1="39.4" y1="21.5" x2="46.8" y2="24.9" fill="#333333"/>
	<line class="st1" x1="35.5" y1="27.3" x2="41.8" y2="31.2" fill="#333333"/>
	<line class="st1" x1="31.1" y1="32.6" x2="36.4" y2="37.2" fill="#333333"/>
</g>
</svg>