<svg xmlns="http://www.w3.org/2000/svg" xmlns:xlink="http://www.w3.org/1999/xlink" version="1.1" id="Layer_1" x="0px" y="0px" viewBox="0 0 311.5 132.8" style="enable-background:new 0 0 311.5 132.8;" xml:space="preserve">
<style type="text/css">
	.st0{fill:#F9A46F;stroke:#333333;stroke-width:5;stroke-miterlimit:10;}
	.st1{fill:none;stroke:#333333;stroke-width:3;stroke-miterlimit:10;}
	.st2{fill:none;stroke:#333333;stroke-miterlimit:10;}
	.st3{fill:#F9A46F;stroke:#333333;stroke-width:4;stroke-miterlimit:10;}
	.st4{fill:none;stroke:#333333;stroke-width:1.5;stroke-miterlimit:10;}
	.st5{fill:none;stroke:#333333;stroke-width:2;stroke-miterlimit:10;}
</style>
<g id="Layer_4">
	<path class="st0" d="M57.2,56.5c-0.2-1.2-1-7.8-7.1-10.5c-2.7-1.2-6.8-1.8-10.6,0c-4.7,2.2-5.6,5-5.7,5.6l-0.1,1.6v-0.1   c0.1-1.5-1.1-4.9-5.8-7.1c-2.5-1.2-6.5-1.8-10.6,0c-6.1,2.7-6.9,9.3-7.1,10.5c-1,7.8,5.1,14.1,9.4,18.5c3.2,3.3,8.9,6.3,12.7,8.2   l1.3,0.7c0.4-0.2-0.5,0.3,0,0c0.5,0.3-0.4-0.2,0,0l1.3-0.7c3.8-1.9,9.8-4.9,13-8.2C52.1,70.6,58.2,64.3,57.2,56.5z" fill="#333333"/>
	<path class="st1" d="M10.1,60.6" fill="#333333"/>
	<path class="st1" d="M21.9,57.8" fill="#333333"/>
	<line class="st1" x1="21.1" y1="62.5" x2="13.6" y2="65.9" fill="#333333"/>
	<line class="st1" x1="25" y1="68.3" x2="18.6" y2="72.2" fill="#333333"/>
	<line class="st1" x1="29.4" y1="73.6" x2="24.1" y2="78.2" fill="#333333"/>
	<line class="st1" x1="46" y1="62.4" x2="53.5" y2="65.8" fill="#333333"/>
	<line class="st1" x1="42.1" y1="68.2" x2="48.5" y2="72.1" fill="#333333"/>
	<line class="st1" x1="37.7" y1="73.5" x2="43.1" y2="78.1" fill="#333333"/>
</g>
<g id="Layer_1_00000091713939774378311260000006316797446331980705_">
	<g>
		<g>
			<path d="M90,77.6c-1.1,1.9-2.5,3.4-4.2,4.3c-1.7,1-3.7,1.4-6.1,1.4c-3.8,0-6.8-1.3-9-4s-3.4-6.3-3.4-11c0-5,1.2-8.9,3.8-11.9     c2.5-3,5.8-4.5,10-4.5c2.1,0,3.8,0.4,5.3,1.2c1.5,0.8,2.7,2,3.7,3.7h0.1V38.2h4.8v44.4h-4.8v-5.1L90,77.6L90,77.6z M72.2,68.1     c0,3.5,0.8,6.2,2.4,8.2s3.8,3,6.5,3c2.7,0,4.9-1,6.5-2.9c1.7-1.9,2.5-4.4,2.5-7.3v-4.4c0-2.4-0.8-4.5-2.4-6.2S84,56,81.6,56     c-2.9,0-5.2,1.1-6.9,3.2C73,61.4,72.2,64.3,72.2,68.1z" fill="#333333"/>
			<path d="M117.2,83.3c-4.4,0-8-1.4-10.6-4.2c-2.7-2.8-4-6.5-4-11.2c0-5,1.4-9,4.1-11.8c2.7-2.8,6.5-4.3,11.2-4.3     c4.5,0,8,1.4,10.5,4.1c2.5,2.8,3.8,6.6,3.8,11.5c0,4.8-1.4,8.6-4.1,11.5C125.3,81.9,121.7,83.3,117.2,83.3z M117.5,79.3     c3.1,0,5.5-1,7.2-3s2.5-4.9,2.5-8.6c0-3.8-0.8-6.7-2.5-8.7s-4.1-3-7.2-3c-3.1,0-5.5,1-7.3,3.2c-1.8,2.1-2.7,5-2.7,8.7     c0,3.6,0.9,6.4,2.7,8.4S114.5,79.3,117.5,79.3z" fill="#333333"/>
			<path d="M164.7,82.7h-4.8V65.5c0-3.2-0.6-5.6-1.7-7.2s-2.9-2.4-5.2-2.4c-2.4,0-4.4,0.9-6,2.7c-1.6,1.8-2.4,4.1-2.4,6.8v17.1h-4.8     v-30h4.8v5h0.1c1.1-1.9,2.5-3.3,4.2-4.3c1.6-1,3.5-1.4,5.7-1.4c3.3,0,5.8,1.1,7.5,3.2s2.6,5.2,2.6,9.2L164.7,82.7L164.7,82.7z" fill="#333333"/>
			<path d="M195,82.7h-4.8V78h-0.1c-1,1.8-2.3,3.2-3.8,4c-1.5,0.9-3.3,1.3-5.3,1.3c-2.8,0-5.1-0.8-6.8-2.5s-2.6-3.8-2.6-6.5     c0-2.6,0.9-4.7,2.6-6.4s4.2-2.8,7.5-3.2l8.6-1.1V63c0-2.5-0.6-4.3-1.8-5.4c-1.2-1.1-2.7-1.6-4.7-1.6c-1.6,0-3.1,0.3-4.5,0.9     c-1.4,0.6-2.8,1.5-4.1,2.7l-2.8-2.9c1.7-1.6,3.5-2.8,5.4-3.6s4-1.1,6.3-1.1c3.6,0,6.4,0.9,8.2,2.8c1.8,1.9,2.8,4.7,2.8,8.4     L195,82.7L195,82.7z M190.2,70.5v-3l-7.2,1c-2.2,0.3-3.9,0.9-5,1.7c-1.1,0.8-1.7,2.1-1.7,3.8c0,1.8,0.5,3.2,1.6,4.1     c1,0.9,2.3,1.4,3.8,1.4c2.6,0,4.7-0.8,6.2-2.6C189.4,75.2,190.2,73.1,190.2,70.5z" fill="#333333"/>
			<path d="M218.6,82.3c-0.8,0.3-1.6,0.6-2.4,0.8s-1.7,0.2-2.7,0.2c-2.4,0-4.2-0.7-5.6-2.1c-1.4-1.4-2-3.5-2-6.2V56.8h-5.2v-4.1h5.2     v-7.3l4.8-1.5v8.9h7.6v4.1h-7.6v17.7c0,1.7,0.3,3,0.9,3.7s1.5,1.1,2.8,1.1c0.6,0,1.1-0.1,1.7-0.2s1-0.3,1.4-0.5L218.6,82.3z" fill="#333333"/>
			<path d="M248.7,68.7h-21.2c0.1,3.4,1,6,2.7,7.8c1.7,1.8,4.1,2.7,7.2,2.7c1.4,0,2.7-0.2,4.1-0.6s2.7-1,4-1.9l2.2,3.4     c-1.7,1.1-3.4,1.9-5.1,2.4s-3.6,0.8-5.6,0.8c-4.5,0-8.1-1.3-10.6-4c-2.5-2.7-3.8-6.5-3.8-11.3c0-4.8,1.2-8.7,3.8-11.7     s5.9-4.4,10-4.4c3.9,0,6.9,1.3,9.1,3.8s3.2,6.1,3.2,10.6L248.7,68.7L248.7,68.7z M243.8,64.8c0-2.8-0.7-4.9-2-6.5     s-3.1-2.3-5.5-2.3c-2.3,0-4.2,0.8-5.8,2.4c-1.6,1.6-2.6,3.7-2.9,6.4H243.8z" fill="#333333"/>
		</g>
	</g>
	<path d="M284.8,30.6" fill="#333333"/>
	<path class="st2" d="M262.1,35.8" fill="#333333"/>
	<path class="st2" d="M253.7,40.4" fill="#333333"/>
	<path class="st3" d="M232,103.2c0,0-16.9,15.6,15.2,22.9c0,0,62,7.7,41-21.4l-12.4-19.3h23.6l-12.5-52.9l1.7-4.4l3.1-0.3l4.3-8   l-13.9-6.3l-2.6-4.7l-5.4,10.3l13.6,57.9l-27-0.2c0,0,12.5,18.4,18,27.8c10.8,18.3-28.9,13.4-31.9,12.6   C234.4,115.2,232,103.2,232,103.2z" fill="#333333"/>
	<line class="st4" x1="283.8" y1="19.3" x2="288.5" y2="20.6" fill="#333333"/>
</g>
<g id="Layer_3">
	<line class="st5" x1="260.7" y1="122.3" x2="260.7" y2="125.4" fill="#333333"/>
	<line class="st5" x1="276.3" y1="120.7" x2="278.5" y2="123.9" fill="#333333"/>
	<line class="st5" x1="245.2" y1="120.7" x2="244.1" y2="124.5" fill="#333333"/>
</g>
</svg>