<?xml version="1.0" encoding="utf-8"?>
<!-- Generator: Adobe Illustrator 28.1.0, SVG Export Plug-In . SVG Version: 6.00 Build 0)  -->
<svg version="1.1" xmlns="http://www.w3.org/2000/svg" xmlns:xlink="http://www.w3.org/1999/xlink" x="0px" y="0px"
	 viewBox="0 0 595.28 841.89" style="enable-background:new 0 0 595.28 841.89;" xml:space="preserve">
<style type="text/css">
	.st0{display:none;}
	.st1{display:inline;fill:#F9A46F;stroke:#000000;stroke-width:1.5;stroke-miterlimit:10;}
	.st2{fill:#F9A46F;stroke:#000000;stroke-width:4;stroke-miterlimit:10;}
	.st3{fill:none;stroke:#000000;stroke-width:3;stroke-miterlimit:10;}
	.st4{fill:#788062;stroke:#000000;stroke-width:3;stroke-miterlimit:10;}
	.st5{fill:none;stroke:#000000;stroke-miterlimit:10;}
	.st6{display:none;fill:none;stroke:#000000;stroke-width:1.5;stroke-miterlimit:10;}
	.st7{fill:none;stroke:#000000;stroke-width:1.5;stroke-miterlimit:10;}
	.st8{display:none;fill:none;stroke:#000000;stroke-width:2;stroke-miterlimit:10;}
	.st9{fill:none;stroke:#000000;stroke-width:2;stroke-miterlimit:10;}
</style>
<g id="Layer_2" class="st0">
	<rect x="47.29" y="68.16" class="st1" width="403.45" height="173.81"/>
</g>
<g id="Layer_4">
	<path class="st2" d="M110.71,144.36c-0.15-1.16-1.02-7.77-7.07-10.47c-2.71-1.21-6.82-1.79-10.61,0c-4.69,2.22-5.61,5.01-5.73,5.58
		l-0.08,1.64l0-0.1c0.08-1.55-1.12-4.91-5.81-7.13c-2.5-1.18-6.53-1.82-10.61,0c-6.05,2.7-6.92,9.31-7.07,10.47
		c-1.03,7.79,5.08,14.09,9.35,18.48c3.23,3.33,8.94,6.29,12.7,8.2l1.3,0.66c0.37-0.21-0.53,0.27,0,0c0.52,0.27-0.37-0.21,0,0
		l1.3-0.65c3.84-1.91,9.76-4.88,13-8.21C105.62,158.45,111.73,152.14,110.71,144.36z"/>
	<path class="st3" d="M63.6,148.42"/>
	<path class="st3" d="M75.41,145.64"/>
	<line class="st4" x1="74.62" y1="150.4" x2="67.17" y2="153.79"/>
	<line class="st4" x1="78.55" y1="156.18" x2="72.16" y2="160.06"/>
	<line class="st4" x1="82.92" y1="161.49" x2="77.59" y2="166.05"/>
	<line class="st4" x1="99.55" y1="150.29" x2="107" y2="153.68"/>
	<line class="st4" x1="95.62" y1="156.07" x2="102.01" y2="159.95"/>
	<line class="st4" x1="91.26" y1="161.38" x2="96.58" y2="165.94"/>
</g>
<g id="Layer_1">
	<g>
		<g>
			<path d="M143.51,165.4c-1.11,1.93-2.52,3.38-4.23,4.35c-1.71,0.97-3.74,1.45-6.08,1.45c-3.77,0-6.78-1.34-9.04-4.03
				c-2.26-2.69-3.38-6.34-3.38-10.97c0-4.96,1.25-8.94,3.75-11.92c2.5-2.99,5.83-4.48,9.99-4.48c2.07,0,3.85,0.41,5.35,1.22
				c1.49,0.81,2.71,2.03,3.65,3.65h0.12v-18.57h4.8v44.41h-4.8v-5.1H143.51z M125.7,155.97c0,3.46,0.81,6.19,2.42,8.19
				c1.61,2,3.77,3,6.49,3c2.7,0,4.87-0.97,6.53-2.9c1.66-1.93,2.49-4.38,2.49-7.32v-4.42c0-2.42-0.81-4.47-2.42-6.15
				c-1.61-1.68-3.64-2.52-6.08-2.52c-2.93,0-5.23,1.07-6.91,3.22C126.54,149.21,125.7,152.18,125.7,155.97z"/>
			<path d="M170.7,171.2c-4.43,0-7.97-1.4-10.62-4.2c-2.65-2.8-3.97-6.52-3.97-11.15c0-5.02,1.37-8.95,4.1-11.78
				c2.73-2.83,6.46-4.26,11.19-4.28c4.47-0.02,7.96,1.36,10.47,4.13c2.51,2.77,3.76,6.59,3.76,11.46c0,4.8-1.35,8.64-4.06,11.51
				C178.88,169.77,175.25,171.2,170.7,171.2z M171.05,167.16c3.11,0,5.49-1.01,7.16-3.03s2.5-4.88,2.5-8.57
				c0-3.77-0.84-6.67-2.52-8.69c-1.68-2.02-4.06-3.03-7.15-3.03c-3.09,0-5.53,1.05-7.32,3.16c-1.8,2.11-2.7,5-2.7,8.67
				c0,3.56,0.91,6.36,2.72,8.41S168,167.16,171.05,167.16z"/>
			<path d="M218.22,170.5h-4.8v-17.11c0-3.18-0.58-5.57-1.74-7.16c-1.16-1.59-2.91-2.39-5.23-2.39c-2.4,0-4.39,0.9-5.96,2.71
				c-1.57,1.81-2.36,4.09-2.36,6.84v17.11h-4.8v-30h4.8v4.98h0.12c1.13-1.89,2.52-3.31,4.16-4.26c1.64-0.95,3.53-1.42,5.68-1.42
				c3.28,0,5.79,1.06,7.53,3.18c1.74,2.12,2.61,5.18,2.61,9.18V170.5z"/>
			<path d="M248.51,170.5h-4.8v-4.69h-0.12c-1.04,1.8-2.31,3.15-3.82,4.04c-1.51,0.9-3.28,1.35-5.29,1.35
				c-2.81,0-5.09-0.82-6.83-2.46c-1.74-1.64-2.61-3.82-2.61-6.53c0-2.56,0.88-4.68,2.64-6.36c1.76-1.68,4.25-2.75,7.47-3.22
				l8.55-1.14v-0.67c0-2.52-0.59-4.31-1.76-5.38c-1.17-1.06-2.73-1.6-4.69-1.6c-1.56,0-3.07,0.29-4.51,0.88
				c-1.45,0.59-2.8,1.48-4.07,2.7l-2.81-2.9c1.68-1.62,3.47-2.81,5.36-3.57c1.89-0.76,4-1.14,6.33-1.14c3.63,0,6.37,0.93,8.2,2.8
				c1.84,1.87,2.75,4.66,2.75,8.39V170.5z M243.7,158.31v-2.99l-7.24,1c-2.21,0.31-3.87,0.87-4.98,1.67
				c-1.11,0.8-1.67,2.06-1.67,3.78c0,1.8,0.52,3.17,1.57,4.12c1.04,0.95,2.32,1.42,3.82,1.42c2.6,0,4.66-0.85,6.2-2.55
				C242.94,163.06,243.7,160.91,243.7,158.31z"/>
			<path d="M272.09,170.15c-0.82,0.33-1.63,0.58-2.42,0.75c-0.79,0.17-1.68,0.25-2.68,0.25c-2.38,0-4.25-0.7-5.61-2.09
				c-1.36-1.4-2.04-3.46-2.04-6.2V144.6h-5.16v-4.1h5.16v-7.32l4.8-1.55v8.88h7.56v4.1h-7.56v17.7c0,1.72,0.31,2.96,0.92,3.72
				s1.54,1.14,2.77,1.14c0.59,0,1.15-0.07,1.7-0.21c0.55-0.14,1.01-0.29,1.38-0.47L272.09,170.15z"/>
			<path d="M302.24,156.58h-21.21c0.08,3.38,0.97,5.98,2.68,7.81c1.71,1.83,4.11,2.74,7.19,2.74c1.35,0,2.7-0.2,4.06-0.6
				c1.36-0.4,2.7-1.04,4.03-1.92l2.23,3.43c-1.7,1.09-3.4,1.89-5.1,2.4s-3.56,0.76-5.6,0.76c-4.53,0-8.07-1.35-10.61-4.04
				c-2.54-2.7-3.82-6.46-3.84-11.28c-0.02-4.82,1.25-8.71,3.82-11.66c2.57-2.95,5.9-4.42,10-4.42c3.91,0,6.94,1.27,9.1,3.82
				c2.16,2.55,3.24,6.08,3.24,10.59V156.58z M297.32,152.66c-0.02-2.77-0.69-4.94-2.02-6.49c-1.33-1.55-3.15-2.33-5.48-2.33
				c-2.29,0-4.22,0.8-5.82,2.39c-1.59,1.59-2.56,3.74-2.92,6.43H297.32z"/>
		</g>
	</g>
	<path d="M338.33,118.48"/>
	<path class="st5" d="M315.59,123.66"/>
	<path class="st5" d="M307.25,128.24"/>
	<path class="st2" d="M285.5,191.03c0,0-16.89,15.57,15.17,22.89c0,0,62.03,7.72,41-21.42l-12.44-19.26h23.62l-12.51-52.86
		l1.73-4.39l3.06-0.29l4.26-7.99l-13.92-6.26l-2.59-4.66l-5.41,10.32l13.64,57.85l-27.05-0.23c0,0,12.53,18.42,18.02,27.76
		c10.75,18.29-28.85,13.38-31.95,12.64C287.9,203.01,285.5,191.03,285.5,191.03z"/>
	<polyline class="st6" points="280.64,115.14 278.62,121.3 274.58,110.34 	"/>
	<line class="st7" x1="337.32" y1="107.18" x2="342.07" y2="108.51"/>
	<polyline class="st6" points="284.03,128.74 281.3,137.09 277.25,126.12 	"/>
	<polyline class="st6" points="287.42,144.53 284.68,152.87 280.64,141.91 	"/>
</g>
<g id="Layer_3">
	<line class="st8" x1="335.87" y1="122.1" x2="331.98" y2="122.1"/>
	<line class="st8" x1="338.13" y1="131.89" x2="333.93" y2="131.89"/>
	<line class="st8" x1="341.23" y1="141.94" x2="336.25" y2="141.94"/>
	<line class="st9" x1="314.25" y1="210.17" x2="314.25" y2="213.29"/>
	<line class="st9" x1="329.8" y1="208.54" x2="331.98" y2="211.73"/>
	<line class="st9" x1="298.69" y1="208.54" x2="297.64" y2="212.35"/>
</g>
</svg>
